<svg width="3840" height="2160" viewBox="0 0 3840 2160" fill="none" xmlns="http://www.w3.org/2000/svg">
  <defs>
    <!-- Background gradient -->
    <linearGradient id="bgGradient" x1="0" y1="0" x2="3840" y2="2160" gradientUnits="userSpaceOnUse">
      <stop offset="0%" stop-color="#0a0f2e"/>
      <stop offset="50%" stop-color="#0d1a4a"/>
      <stop offset="100%" stop-color="#060c1f"/>
    </linearGradient>

    <!-- Radial glow behind logo -->
    <radialGradient id="centerGlow" cx="50%" cy="50%" r="50%">
      <stop offset="0%" stop-color="#2563eb" stop-opacity="0.18"/>
      <stop offset="60%" stop-color="#1e40af" stop-opacity="0.06"/>
      <stop offset="100%" stop-color="#0a0f2e" stop-opacity="0"/>
    </radialGradient>

    <!-- Hexagon fill gradient -->
    <linearGradient id="hexGrad" x1="0" y1="0" x2="1" y2="1">
      <stop offset="0%" stop-color="#3b82f6"/>
      <stop offset="100%" stop-color="#1d4ed8"/>
    </linearGradient>

    <!-- Glow filter for atom orbits -->
    <filter id="glowBlue" x="-20%" y="-20%" width="140%" height="140%">
      <feGaussianBlur in="SourceGraphic" stdDeviation="8" result="blur"/>
      <feMerge>
        <feMergeNode in="blur"/>
        <feMergeNode in="SourceGraphic"/>
      </feMerge>
    </filter>

    <!-- Soft text shadow -->
    <filter id="textGlow" x="-10%" y="-30%" width="120%" height="160%">
      <feGaussianBlur in="SourceGraphic" stdDeviation="18" result="blur"/>
      <feMerge>
        <feMergeNode in="blur"/>
        <feMergeNode in="SourceGraphic"/>
      </feMerge>
    </filter>

    <!-- Subtle drop shadow for hexagon -->
    <filter id="hexShadow" x="-15%" y="-15%" width="130%" height="130%">
      <feDropShadow dx="0" dy="0" stdDeviation="40" flood-color="#2563eb" flood-opacity="0.6"/>
    </filter>
  </defs>

  <!-- ── Background ── -->
  <rect width="3840" height="2160" fill="url(#bgGradient)"/>

  <!-- ── Center radial glow ── -->
  <ellipse cx="1920" cy="1080" rx="900" ry="700" fill="url(#centerGlow)"/>

  <!-- ════════════════════════════════════════════
       CIRCUIT BOARD DECORATIVE PATTERN
       (scattered across the canvas at low opacity)
       ════════════════════════════════════════════ -->
  <g opacity="0.12" stroke="#3b82f6" stroke-width="2" fill="#3b82f6">
    <!-- Top-left cluster -->
    <circle cx="120"  cy="180"  r="7"/>
    <circle cx="280"  cy="120"  r="5"/>
    <circle cx="420"  cy="240"  r="7"/>
    <circle cx="560"  cy="160"  r="5"/>
    <circle cx="200"  cy="320"  r="5"/>
    <circle cx="360"  cy="380"  r="7"/>
    <line x1="120"  y1="180"  x2="280"  y2="120"/>
    <line x1="280"  y1="120"  x2="420"  y2="240"/>
    <line x1="420"  y1="240"  x2="560"  y2="160"/>
    <line x1="120"  y1="180"  x2="200"  y2="320"/>
    <line x1="200"  y1="320"  x2="360"  y2="380"/>
    <line x1="360"  y1="380"  x2="420"  y2="240"/>

    <!-- Top-right cluster -->
    <circle cx="3320" cy="140"  r="7"/>
    <circle cx="3500" cy="220"  r="5"/>
    <circle cx="3660" cy="140"  r="7"/>
    <circle cx="3760" cy="280"  r="5"/>
    <circle cx="3420" cy="320"  r="5"/>
    <circle cx="3580" cy="400"  r="7"/>
    <line x1="3320" y1="140"  x2="3500" y2="220"/>
    <line x1="3500" y1="220"  x2="3660" y2="140"/>
    <line x1="3660" y1="140"  x2="3760" y2="280"/>
    <line x1="3320" y1="140"  x2="3420" y2="320"/>
    <line x1="3420" y1="320"  x2="3580" y2="400"/>
    <line x1="3580" y1="400"  x2="3660" y2="140"/>

    <!-- Bottom-left cluster -->
    <circle cx="160"  cy="1900" r="7"/>
    <circle cx="320"  cy="1980" r="5"/>
    <circle cx="480"  cy="1860" r="7"/>
    <circle cx="620"  cy="1940" r="5"/>
    <circle cx="240"  cy="2060" r="5"/>
    <circle cx="400"  cy="2100" r="7"/>
    <line x1="160"  y1="1900" x2="320"  y2="1980"/>
    <line x1="320"  y1="1980" x2="480"  y2="1860"/>
    <line x1="480"  y1="1860" x2="620"  y2="1940"/>
    <line x1="160"  y1="1900" x2="240"  y2="2060"/>
    <line x1="240"  y1="2060" x2="400"  y2="2100"/>
    <line x1="400"  y1="2100" x2="480"  y2="1860"/>

    <!-- Bottom-right cluster -->
    <circle cx="3280" cy="1940" r="7"/>
    <circle cx="3460" cy="2020" r="5"/>
    <circle cx="3620" cy="1900" r="7"/>
    <circle cx="3760" cy="1980" r="5"/>
    <circle cx="3360" cy="2100" r="5"/>
    <circle cx="3540" cy="2120" r="7"/>
    <line x1="3280" y1="1940" x2="3460" y2="2020"/>
    <line x1="3460" y1="2020" x2="3620" y2="1900"/>
    <line x1="3620" y1="1900" x2="3760" y2="1980"/>
    <line x1="3280" y1="1940" x2="3360" y2="2100"/>
    <line x1="3360" y1="2100" x2="3540" y2="2120"/>
    <line x1="3540" y1="2120" x2="3620" y2="1900"/>

    <!-- Mid-left edge -->
    <circle cx="80"   cy="900"  r="6"/>
    <circle cx="180"  cy="1000" r="6"/>
    <circle cx="100"  cy="1100" r="6"/>
    <line x1="80"   y1="900"  x2="180"  y2="1000"/>
    <line x1="180"  y1="1000" x2="100"  y2="1100"/>

    <!-- Mid-right edge -->
    <circle cx="3760" cy="900"  r="6"/>
    <circle cx="3660" cy="1000" r="6"/>
    <circle cx="3740" cy="1100" r="6"/>
    <line x1="3760" y1="900"  x2="3660" y2="1000"/>
    <line x1="3660" y1="1000" x2="3740" y2="1100"/>

    <!-- Horizontal trace lines -->
    <line x1="0"    y1="540"  x2="600"  y2="540"  stroke-width="1.5"/>
    <line x1="0"    y1="560"  x2="400"  y2="560"  stroke-width="1"/>
    <line x1="3240" y1="540"  x2="3840" y2="540"  stroke-width="1.5"/>
    <line x1="3440" y1="560"  x2="3840" y2="560"  stroke-width="1"/>
    <line x1="0"    y1="1620" x2="600"  y2="1620" stroke-width="1.5"/>
    <line x1="3240" y1="1620" x2="3840" y2="1620" stroke-width="1.5"/>
  </g>

  <!-- ════════════════════════════════════════════
       MAIN LOGO MARK — large hexagon + atom
       Centered at (1920, 880), radius ~380
       ════════════════════════════════════════════ -->
  <g transform="translate(1920, 860)" filter="url(#hexShadow)">
    <!-- Hexagon (flat-top, radius 380) -->
    <!-- vertices: top(0,-380), top-right(329,-190), bot-right(329,190), bot(0,380), bot-left(-329,190), top-left(-329,-190) -->
    <polygon
      points="0,-380 329,-190 329,190 0,380 -329,190 -329,-190"
      fill="url(#hexGrad)"
      stroke="#60a5fa"
      stroke-width="8"
      opacity="0.95"
    />

    <!-- Inner hexagon ring -->
    <polygon
      points="0,-300 259,-150 259,150 0,300 -259,150 -259,-150"
      fill="none"
      stroke="#93c5fd"
      stroke-width="3"
      opacity="0.35"
    />

    <!-- Atom nucleus -->
    <circle cx="0" cy="0" r="28" fill="white" opacity="0.95"/>
    <circle cx="0" cy="0" r="18" fill="#dbeafe"/>

    <!-- Atom orbit 1 (horizontal) -->
    <ellipse cx="0" cy="0" rx="230" ry="90"
             stroke="white" stroke-width="7" fill="none"
             transform="rotate(0)"
             filter="url(#glowBlue)" opacity="0.9"/>

    <!-- Atom orbit 2 (60°) -->
    <ellipse cx="0" cy="0" rx="230" ry="90"
             stroke="white" stroke-width="7" fill="none"
             transform="rotate(60)"
             filter="url(#glowBlue)" opacity="0.9"/>

    <!-- Atom orbit 3 (-60°) -->
    <ellipse cx="0" cy="0" rx="230" ry="90"
             stroke="white" stroke-width="7" fill="none"
             transform="rotate(-60)"
             filter="url(#glowBlue)" opacity="0.9"/>

    <!-- Electron dots on orbits -->
    <!-- orbit 1 right -->
    <circle cx="230" cy="0"    r="14" fill="#bfdbfe" opacity="0.95"/>
    <!-- orbit 2 -->
    <circle cx="115"  cy="-199" r="14" fill="#bfdbfe" opacity="0.95"/>
    <!-- orbit 3 -->
    <circle cx="-115" cy="-199" r="14" fill="#bfdbfe" opacity="0.95"/>
  </g>

  <!-- ════════════════════════════════════════════
       BRAND NAME TEXT
       ════════════════════════════════════════════ -->

  <!-- "Next Zen" – large white bold -->
  <text
    x="1920" y="1440"
    font-family="Arial, Helvetica, sans-serif"
    font-size="220"
    font-weight="900"
    fill="white"
    text-anchor="middle"
    letter-spacing="8"
    filter="url(#textGlow)"
  >NEXT ZEN</text>

  <!-- "STEM ACADEMY" – blue subtitle -->
  <text
    x="1920" y="1620"
    font-family="Arial, Helvetica, sans-serif"
    font-size="130"
    font-weight="700"
    fill="#60a5fa"
    text-anchor="middle"
    letter-spacing="32"
  >STEM ACADEMY</text>

  <!-- Tagline -->
  <text
    x="1920" y="1740"
    font-family="Arial, Helvetica, sans-serif"
    font-size="58"
    font-weight="400"
    fill="#93c5fd"
    text-anchor="middle"
    letter-spacing="6"
    opacity="0.85"
  >Inspiring the Next Generation of Innovators</text>

  <!-- ── Decorative horizontal rule lines flanking tagline ── -->
  <line x1="300"  y1="1690" x2="1480" y2="1690" stroke="#3b82f6" stroke-width="3" opacity="0.5"/>
  <line x1="2360" y1="1690" x2="3540" y2="1690" stroke="#3b82f6" stroke-width="3" opacity="0.5"/>
  <circle cx="1480" cy="1690" r="6" fill="#3b82f6" opacity="0.7"/>
  <circle cx="2360" cy="1690" r="6" fill="#3b82f6" opacity="0.7"/>

  <!-- ── Corner accent dots ── -->
  <g fill="#2563eb" opacity="0.6">
    <circle cx="80"   cy="80"   r="20"/>
    <circle cx="140"  cy="80"   r="10"/>
    <circle cx="80"   cy="140"  r="10"/>

    <circle cx="3760" cy="80"   r="20"/>
    <circle cx="3700" cy="80"   r="10"/>
    <circle cx="3760" cy="140"  r="10"/>

    <circle cx="80"   cy="2080" r="20"/>
    <circle cx="140"  cy="2080" r="10"/>
    <circle cx="80"   cy="2020" r="10"/>

    <circle cx="3760" cy="2080" r="20"/>
    <circle cx="3700" cy="2080" r="10"/>
    <circle cx="3760" cy="2020" r="10"/>
  </g>

  <!-- ── Website / URL watermark ── -->
  <text
    x="1920" y="2110"
    font-family="Arial, Helvetica, sans-serif"
    font-size="42"
    font-weight="400"
    fill="#475569"
    text-anchor="middle"
    letter-spacing="4"
  >www.nextzenstemacademy.com</text>
</svg>
