<svg width="32" height="32" viewBox="0 0 32 32" fill="none" xmlns="http://www.w3.org/2000/svg">
  <defs>
    <linearGradient id="bgA" x1="0%" y1="0%" x2="100%" y2="100%">
      <stop offset="0%" stop-color="#1a237e"/>
      <stop offset="100%" stop-color="#283593"/>
    </linearGradient>
    <linearGradient id="pgA" x1="0%" y1="100%" x2="100%" y2="0%">
      <stop offset="0%" stop-color="#e65100"/>
      <stop offset="50%" stop-color="#ff8f00"/>
      <stop offset="100%" stop-color="#ffd54f"/>
    </linearGradient>
    <linearGradient id="pgmA" x1="0%" y1="100%" x2="100%" y2="0%">
      <stop offset="0%" stop-color="#bf360c"/>
      <stop offset="100%" stop-color="#ff6f00"/>
    </linearGradient>
    <linearGradient id="grA" x1="0%" y1="100%" x2="0%" y2="0%">
      <stop offset="0%" stop-color="#1b5e20"/>
      <stop offset="100%" stop-color="#43a047"/>
    </linearGradient>
    <radialGradient id="nuA" cx="40%" cy="35%" r="60%">
      <stop offset="0%" stop-color="#fff9c4"/>
      <stop offset="50%" stop-color="#ffd740"/>
      <stop offset="100%" stop-color="#ff6d00"/>
    </radialGradient>
  </defs>

  <!-- Background circle -->
  <circle cx="16" cy="16" r="15" fill="url(#bgA)" stroke="#ffd740" stroke-width="0.5"/>

  <!-- Lotus + Atom centered at 16,18 -->
  <g transform="translate(16,18)">
    <!-- Green outer petals -->
    <ellipse cx="0" cy="2" rx="2.5" ry="8" fill="url(#grA)" transform="rotate(-75)" opacity="0.95"/>
    <ellipse cx="0" cy="2" rx="2.5" ry="8" fill="url(#grA)" transform="rotate(75)" opacity="0.95"/>
    <ellipse cx="0" cy="2" rx="2.2" ry="7" fill="url(#grA)" transform="rotate(-95)" opacity="0.85"/>
    <ellipse cx="0" cy="2" rx="2.2" ry="7" fill="url(#grA)" transform="rotate(95)" opacity="0.85"/>

    <!-- Mid gold petals -->
    <ellipse cx="0" cy="0" rx="3" ry="9" fill="url(#pgmA)" transform="rotate(-55)" opacity="0.85"/>
    <ellipse cx="0" cy="0" rx="3" ry="9" fill="url(#pgmA)" transform="rotate(55)" opacity="0.85"/>

    <!-- Main gold petals -->
    <ellipse cx="0" cy="0" rx="3.2" ry="9.5" fill="url(#pgA)" transform="rotate(-30)"/>
    <ellipse cx="0" cy="0" rx="3.2" ry="9.5" fill="url(#pgA)" transform="rotate(30)"/>
    <ellipse cx="0" cy="0" rx="3.5" ry="10" fill="url(#pgA)"/>

    <!-- Atom orbits -->
    <ellipse cx="0" cy="-3" rx="7" ry="3" fill="none" stroke="#40c4ff" stroke-width="0.9" opacity="0.95"/>
    <ellipse cx="0" cy="-3" rx="7" ry="3" fill="none" stroke="#40c4ff" stroke-width="0.9" opacity="0.95" transform="rotate(60 0 -3)"/>
    <ellipse cx="0" cy="-3" rx="7" ry="3" fill="none" stroke="#40c4ff" stroke-width="0.9" opacity="0.95" transform="rotate(120 0 -3)"/>

    <!-- Nucleus -->
    <circle cx="0" cy="-3" r="2.3" fill="url(#nuA)" stroke="#ffd740" stroke-width="0.5"/>
    <circle cx="0" cy="-3" r="0.8" fill="#fff9c4" opacity="0.9"/>
  </g>
</svg>
